<svg xmlns:xlink="http://www.w3.org/1999/xlink" viewBox="0 0 100 100" x="0" xmlns="http://www.w3.org/2000/svg" y="0">
    <symbol id="sun">
        <path class="sun-glow"
            d="M66.64,47.86,82,41,66.64,34.12l9.84-13.66L59.76,22.22,61.46,5.47l-13.6,9.89L41,0,34.12,15.36,20.46,5.52l1.76,16.72L5.47,20.54l9.89,13.6L0,41l15.36,6.83L5.52,61.54l16.72-1.76L20.54,76.53l13.6-9.89L41,82l6.83-15.36,13.66,9.84L59.78,59.76l16.75,1.69Z"
            fill="url(#sun-glow-grad)"></path>
        <path class="sun-outer" d="M19.28,53.5a25,25,0,1,0,9.15-34.16A25,25,0,0,0,19.28,53.5Z" fill="#ffd348"></path>
        <path class="sun-inner" d="M22.74,51.5a21,21,0,1,0,7.69-28.69A21,21,0,0,0,22.74,51.5Z" fill="url(#sun-inner-grad)"></path>
    </symbol>

    <defs>
        <radialGradient cx="41" cy="41" gradientUnits="userSpaceOnUse" id="sun-glow-grad" r="41">
            <stop offset="54%" stop-color="#d6b849" />
            <stop offset="67%" stop-color="#ffce47" />
            <stop offset="100%" stop-color="#ffdb73" />
        </radialGradient>
        <linearGradient id="sun-inner-grad" x1="0%" x2="100%" y1="0%" y2="100%">
            <stop offset="0%" stop-color="#ffaf22" />
            <stop offset="100%" stop-color="#f09900" />
        </linearGradient>
    </defs>
    <symbol id="s01d">
        <use height="100" transform="translate(9,9) scale(1,1)" width="100" x="0" y="0" xlink:href="#sun"></use>
    </symbol>
    <use height="100" width="100" x="0" y="0" xlink:href="#s01d"></use>
</svg>